<svg width="39" height="32" viewBox="0 0 39 32" fill="none" xmlns="http://www.w3.org/2000/svg">
<g id="Group 589">
<g id="Group">
<g id="Group_2">
<path id="Vector" d="M19.3311 16.2404L38.6623 8.1202L19.3311 0L0 8.1202L2.96257 9.36161V12.7117C1.92815 12.8818 1.142 13.7831 1.142 14.897C1.142 15.7642 1.63851 16.5125 2.35019 16.8781C1.86195 18.2556 1.53921 20.6534 1.53921 23.3913H5.05622C5.05622 20.6534 4.73348 18.2471 4.24524 16.8781C4.96519 16.521 5.45344 15.7727 5.45344 14.897C5.45344 13.7916 4.66728 12.8818 3.63287 12.7202V9.65071L19.3311 16.2404ZM27.623 18.1535L26.2576 19.8711H29.4188L30.3042 18.8083C29.4601 18.4171 28.7816 18.2896 27.623 18.1535ZM26.0176 18.06C24.7101 18.06 23.0302 18.3236 22.0041 18.6297L22.6992 19.8626L25.3523 19.8201L26.7855 18.06C26.3386 18.026 26.481 18.06 26.0176 18.06ZM30.5277 18.8763L29.7084 19.8711H32.0338C31.7276 19.565 30.9993 19.1144 30.5277 18.8763ZM21.8799 18.8168C20.9035 19.1314 20.498 19.3524 19.9849 19.8626L22.4178 19.8201L21.8799 18.8168ZM18.6857 19.8711C19.0746 20.2622 19.298 20.6874 19.3311 21.1465H19.3477C19.3725 20.6959 19.6042 20.2622 19.9932 19.8711H18.6857ZM12.6612 18.06C12.3799 18.06 12.0985 18.0685 11.8254 18.0855L13.2488 19.8711H16.0541L16.6748 18.6977C15.5493 18.2981 14.1591 18.06 12.6612 18.06ZM16.8651 18.7742L16.2858 19.8711H18.6857C18.2554 19.4375 17.6264 19.0633 16.8651 18.7742ZM11.5689 18.1025C10.3938 18.1961 9.31801 18.4341 8.43255 18.7742L9.33456 19.8626H12.9757L11.5689 18.1025ZM8.22567 18.8593C7.56364 19.1399 7.01747 19.48 6.62853 19.8626H9.0532L8.22567 18.8593Z" fill="#F4A93F"/>
</g>
<g id="Group_3">
<path id="Vector_2" d="M20.6216 16.453L23.7662 22.337L28.4749 16.453H32.2236L26.2819 23.6634L31.9174 31.6476H28.1025L23.7662 25.5085V31.6476H20.6216V16.453Z" fill="#F4A93F"/>
</g>
<g id="Group_4">
<path id="Vector_3" d="M18.0805 31.6561H14.9359V25.517L10.5996 31.6561H6.7847L12.4202 23.6719L6.47852 16.453H10.2272L14.9359 22.337L18.0805 16.453V31.6561Z" fill="#F4A93F"/>
</g>
</g>
</g>
</svg>
