<svg width="16" height="16" viewBox="0 0 16 16" fill="none" xmlns="http://www.w3.org/2000/svg">
<g id="bxs:down-arrow">
<path id="Vector" d="M7.45196 13.046C7.51312 13.1349 7.59496 13.2075 7.69042 13.2577C7.78588 13.3078 7.89211 13.3341 7.99996 13.3341C8.10781 13.3341 8.21403 13.3078 8.3095 13.2577C8.40496 13.2075 8.4868 13.1349 8.54796 13.046L14.548 4.37937C14.6174 4.27941 14.6581 4.16233 14.6657 4.04084C14.6733 3.91936 14.6474 3.79812 14.591 3.6903C14.5345 3.58248 14.4495 3.49221 14.3453 3.42928C14.2411 3.36635 14.1217 3.33318 14 3.33337H1.99996C1.87852 3.33388 1.75952 3.36747 1.65574 3.43055C1.55197 3.49363 1.46736 3.5838 1.411 3.69137C1.35465 3.79894 1.32868 3.91984 1.3359 4.04106C1.34311 4.16229 1.38324 4.27925 1.45196 4.37937L7.45196 13.046Z" fill="#607D8B"/>
</g>
</svg>
