<svg width="56" height="56" viewBox="0 0 56 56" fill="none" xmlns="http://www.w3.org/2000/svg">
<circle cx="28" cy="28" r="28" fill="url(#paint0_linear_328_1140)"/>
<path d="M39.2812 27.0938C39.2396 28.2812 39.026 29.3073 38.6406 30.1719C38.2552 31.0365 37.7812 31.7448 37.2188 32.2969C36.6458 32.849 36.026 33.25 35.3594 33.5C34.6927 33.7396 34.0625 33.8333 33.4688 33.7812C32.7812 33.7188 32.1458 33.5469 31.5625 33.2656C30.9896 32.974 30.5365 32.526 30.2031 31.9219C29.8802 32.2135 29.5469 32.4479 29.2031 32.625C28.8594 32.8021 28.5469 32.9427 28.2656 33.0469C28.099 33.099 27.9323 33.151 27.7656 33.2031C27.599 33.2448 27.4375 33.276 27.2812 33.2969C26.5729 33.401 25.9219 33.3698 25.3281 33.2031C24.7448 33.0365 24.2396 32.7604 23.8125 32.375C22.9062 31.5833 22.4115 30.4427 22.3281 28.9531C22.2865 28.224 22.375 27.5521 22.5938 26.9375C22.8229 26.3125 23.1458 25.776 23.5625 25.3281C24.4167 24.3698 25.5417 23.8906 26.9375 23.8906C27.2917 23.901 27.6406 23.9323 27.9844 23.9844C28.2865 24.0365 28.6094 24.1146 28.9531 24.2188C29.3073 24.3229 29.6458 24.4688 29.9688 24.6562L30.1406 23.5156L32.625 23.5781C32.5625 24.724 32.5156 25.6875 32.4844 26.4688C32.4635 27.2396 32.4479 27.8646 32.4375 28.3438C32.4167 28.9062 32.4167 29.3542 32.4375 29.6875C32.3958 30.3542 32.5469 30.8021 32.8906 31.0312C33.2448 31.25 33.6042 31.3229 33.9688 31.25C34.1771 31.2292 34.4167 31.1562 34.6875 31.0312C34.9688 30.9062 35.2448 30.7135 35.5156 30.4531C35.6927 30.276 35.875 30.0104 36.0625 29.6562C36.2292 29.3229 36.3646 28.9219 36.4688 28.4531C36.5729 27.974 36.625 27.4062 36.625 26.75C36.625 25.7708 36.401 24.8594 35.9531 24.0156C35.5156 23.1719 34.901 22.4375 34.1094 21.8125C33.3177 21.1979 32.375 20.724 31.2812 20.3906C30.1875 20.0469 28.9948 19.8802 27.7031 19.8906C26.8698 19.9115 26.099 20.0469 25.3906 20.2969C23.9323 20.8281 22.6875 21.724 21.6562 22.9844C21.3958 23.2865 21.1562 23.6042 20.9375 23.9375C20.7292 24.2604 20.5365 24.5938 20.3594 24.9375C20.0052 25.625 19.7292 26.3333 19.5312 27.0625C19.3438 27.7917 19.25 28.5052 19.25 29.2031C19.25 30.2552 19.3698 31.1979 19.6094 32.0312C19.849 32.8542 20.2656 33.5781 20.8594 34.2031C21.4531 34.8281 22.25 35.3542 23.25 35.7812C24.25 36.2083 25.5104 36.5365 27.0312 36.7656L26.3281 39.25C24.9948 39.1562 23.8333 38.9323 22.8438 38.5781C21.8646 38.2135 21.0208 37.7708 20.3125 37.25C19.6146 36.7292 19.0365 36.1562 18.5781 35.5312C18.1198 34.9062 17.7604 34.2708 17.5 33.625C16.8646 32.125 16.599 30.4479 16.7031 28.5938C16.776 27.9167 16.8854 27.276 17.0312 26.6719C17.1771 26.0677 17.3542 25.4948 17.5625 24.9531C17.9896 23.8906 18.5104 22.9583 19.125 22.1562C19.75 21.3438 20.4427 20.651 21.2031 20.0781C21.9948 19.4948 22.7812 19.0312 23.5625 18.6875C24.3646 18.3229 25.1615 18.0573 25.9531 17.8906C26.7448 17.7135 27.4896 17.6146 28.1875 17.5938C28.9062 17.5625 29.7083 17.6198 30.5938 17.7656C31.4479 17.9219 32.2917 18.1667 33.125 18.5C33.9583 18.8333 34.7552 19.2604 35.5156 19.7812C35.901 20.0417 36.2552 20.3281 36.5781 20.6406C36.9115 20.9427 37.224 21.2708 37.5156 21.625C38.0885 22.3438 38.5365 23.1562 38.8594 24.0625C39.1823 24.9688 39.3229 25.9792 39.2812 27.0938ZM29.7188 29.4375C29.7188 29.0729 29.724 28.6979 29.7344 28.3125C29.7448 27.9167 29.7604 27.5104 29.7812 27.0938C29.5104 26.875 29.2344 26.7031 28.9531 26.5781C28.6823 26.4531 28.4323 26.3646 28.2031 26.3125C27.974 26.2604 27.7135 26.224 27.4219 26.2031C26.651 26.2031 26.0625 26.4896 25.6562 27.0625C25.25 27.6354 25.0469 28.2135 25.0469 28.7969C25.0469 29.3698 25.2135 29.875 25.5469 30.3125C25.8906 30.75 26.4583 30.9688 27.25 30.9688C27.4792 30.9583 27.7396 30.8906 28.0312 30.7656C28.2708 30.6719 28.5365 30.5208 28.8281 30.3125C29.1198 30.1042 29.4167 29.8125 29.7188 29.4375Z" fill="white"/>
<defs>
<linearGradient id="paint0_linear_328_1140" x1="56" y1="28.0681" x2="-1.30175" y2="28.0681" gradientUnits="userSpaceOnUse">
<stop stop-color="#FFE599"/>
<stop offset="1" stop-color="#F4A93F"/>
</linearGradient>
</defs>
</svg>
