<svg width="64" height="64" viewBox="0 0 64 64" fill="none" xmlns="http://www.w3.org/2000/svg">
<g id="3709749-advice-consult-mobile-service-system_108073 1">
<path id="Vector 39" d="M48.5 29.8252V25.1C48.5 25.0448 48.5448 25 48.6 25H56.6328C56.7346 25 56.7713 25.1345 56.6835 25.1862L48.6507 29.9114C48.584 29.9506 48.5 29.9025 48.5 29.8252Z" fill="#B0BEC5"/>
<rect id="Rectangle 644" x="32" y="3" width="29" height="22" fill="#B0BEC5"/>
<g id="Group">
<path id="Vector" d="M54.414 14C53.123 12.711 50.877 12.711 49.586 14L48.947 14.639C48.714 14.872 48.404 15 48.074 15H47.926C47.596 15 47.286 14.872 47.053 14.638L46.363 13.949C46.129 13.714 46 13.404 46 13.074C46 12.697 46.169 12.345 46.464 12.11L47.038 11.651C47.649 11.161 48 10.431 48 9.64799C48 8.97299 47.727 8.31199 47.249 7.83499L45.414 5.99999C44.123 4.71099 41.877 4.70999 40.586 5.99999L39.23 7.35699C38.437 8.14799 38 9.20199 38 10.345C38 10.915 38.114 11.471 38.339 11.997C40.207 16.355 43.622 19.816 47.954 21.741L49.975 22.638C50.514 22.878 51.087 23 51.678 23C52.797 23 53.85 22.564 54.643 21.772L56 20.415C56.645 19.77 57 18.913 57 18C57 17.087 56.645 16.23 56 15.586L54.414 14ZM54.586 19L53.23 20.357C52.594 20.99 51.606 21.176 50.788 20.81L48.767 19.912C44.897 18.192 41.846 15.101 40.178 11.209C40.06 10.934 40 10.643 40 10.322C40 9.73599 40.229 9.18599 40.643 8.77199L42 7.41499C42.268 7.14699 42.622 6.99999 43 6.99999C43.378 6.99999 43.732 7.14699 44 7.41399L45.835 9.24899C45.939 9.35399 46 9.49999 46 9.64799C46 9.81999 45.923 9.98099 45.788 10.089L45.215 10.548C44.442 11.165 44 12.085 44 13.074C44 13.938 44.336 14.75 44.947 15.362L45.637 16.051C46.249 16.663 47.062 17 47.926 17H48.074C48.938 17 49.751 16.663 50.361 16.053L51 15.415C51.535 14.88 52.465 14.88 53 15.415L54.586 17C54.854 17.267 55 17.622 55 18C55 18.378 54.854 18.733 54.586 19Z" fill="#90A4AE"/>
<path id="Vector_2" d="M19.469 51.439L21.834 50.088C22.061 50.192 22.289 50.288 22.519 50.374L23.236 53H28.763L29.481 50.375C29.71 50.289 29.939 50.193 30.166 50.089L32.531 51.44L36.439 47.532L35.088 45.167C35.192 44.94 35.288 44.712 35.374 44.482L38 43.764V38.237L35.375 37.519C35.289 37.29 35.193 37.061 35.089 36.834L36.44 34.469L32.532 30.561L30.166 31.911C29.94 31.807 29.712 31.711 29.482 31.625L28.764 29H23.237L22.519 31.625C22.29 31.711 22.061 31.806 21.835 31.911L19.469 30.561L15.561 34.469L16.912 36.834C16.808 37.061 16.712 37.289 16.626 37.519L14 38.236V43.763L16.625 44.481C16.711 44.71 16.807 44.939 16.911 45.166L15.56 47.531L19.469 51.439ZM16 42.236V39.763L18.193 39.162L18.354 38.638C18.497 38.176 18.689 37.715 18.926 37.268L19.184 36.783L18.054 34.803L19.802 33.055L21.781 34.184L22.267 33.927C22.716 33.69 23.177 33.497 23.637 33.355L24.161 33.194L24.764 31H27.237L27.838 33.193L28.362 33.354C28.822 33.497 29.283 33.689 29.732 33.926L30.218 34.183L32.197 33.054L33.945 34.802L32.815 36.782L33.073 37.267C33.31 37.714 33.503 38.175 33.645 38.637L33.806 39.161L36 39.764V42.237L33.807 42.838L33.646 43.362C33.503 43.824 33.311 44.285 33.074 44.732L32.816 45.217L33.946 47.197L32.198 48.945L30.218 47.815L29.733 48.073C29.286 48.31 28.825 48.503 28.363 48.645L27.839 48.806L27.236 51H24.763L24.162 48.807L23.638 48.646C23.176 48.503 22.715 48.311 22.268 48.074L21.783 47.816L19.803 48.946L18.055 47.198L19.185 45.218L18.927 44.733C18.69 44.286 18.497 43.825 18.355 43.363L18.194 42.839L16 42.236Z" fill="#90A4AE"/>
<path id="Vector_3" d="M26 47C29.309 47 32 44.309 32 41C32 37.691 29.309 35 26 35C22.691 35 20 37.691 20 41C20 44.309 22.691 47 26 47ZM26 37C28.206 37 30 38.794 30 41C30 43.206 28.206 45 26 45C23.794 45 22 43.206 22 41C22 38.794 23.794 37 26 37Z" fill="#90A4AE"/>
<path id="Vector_4" d="M60 1H34C32.346 1 31 2.346 31 4V12H20C18.61 12 17.449 12.954 17.11 14.239C10.864 17.552 7 23.921 7 31V36.08C3.614 36.568 1 39.481 1 43V47C1 50.859 4.141 54 8 54H13V36H9V31C9 24.932 12.171 19.44 17.354 16.383C17.856 17.339 18.847 18 20 18H31V24C31 25.654 32.346 27 34 27H42.515C42.831 28.303 43 29.644 43 31V36H39V54H40.899C40.434 56.279 38.415 58 36 58H30.858C30.411 56.279 28.859 55 27 55H23C20.794 55 19 56.794 19 59C19 61.206 20.794 63 23 63H27C28.859 63 30.411 61.721 30.858 60H36C39.519 60 42.432 57.386 42.92 54H44C47.859 54 51 50.859 51 47V43C51 39.481 48.386 36.568 45 36.08V31C45 29.648 44.857 28.308 44.576 27H47V32.804L56.287 27H60C61.654 27 63 25.654 63 24V4C63 2.346 61.654 1 60 1ZM11 52H9V40H7V51.899C4.721 51.434 3 49.414 3 47V43C3 40.243 5.243 38 8 38H11V52ZM27 61H23C21.897 61 21 60.103 21 59C21 57.897 21.897 57 23 57H27C28.103 57 29 57.897 29 59C29 60.103 28.103 61 27 61ZM49 43V47C49 49.414 47.279 51.434 45 51.899V40H43V52H41V38H44C46.757 38 49 40.243 49 43ZM25 14V16H23V14H25ZM19 15C19 14.449 19.448 14 20 14H21V16H20C19.448 16 19 15.551 19 15ZM27 16V14H31V16H27ZM61 24C61 24.551 60.552 25 60 25H55.713L49 29.196V25H34C33.448 25 33 24.551 33 24V4C33 3.449 33.448 3 34 3H60C60.552 3 61 3.449 61 4V24Z" fill="#90A4AE"/>
</g>
</g>
</svg>
