<svg width="60" height="60" viewBox="0 0 60 60" fill="none" xmlns="http://www.w3.org/2000/svg">
<g id="taskboardminimono_105759 1">
<g id="Layer_x0020_1">
<path id="Vector" fill-rule="evenodd" clip-rule="evenodd" d="M43.1999 15.6H16.7999C16.6799 15.6 16.1999 15.36 16.1999 15C16.0799 14.64 16.3199 14.28 16.4399 14.04L17.6399 11.76H15.3599C14.7599 11.76 14.2799 12.24 14.2799 12.84V52.44C14.2799 53.04 14.7599 53.52 15.3599 53.52H37.4399L45.7199 45.48V12.84C45.7199 12.24 45.2399 11.76 44.6399 11.76H42.3599L43.5599 14.04C43.6799 14.28 43.9199 14.64 43.7999 15C43.7999 15.36 43.3199 15.6 43.1999 15.6ZM12.1199 7.55999H19.4399L20.1599 6.23999C20.2799 6.11999 20.2799 5.99999 20.5199 5.99999H26.2799C26.5199 5.99999 27.1199 5.63999 27.1199 5.03999V3.59999C27.1199 2.99999 27.5999 2.39999 28.3199 2.39999H31.6799C32.3999 2.39999 32.8799 2.99999 32.8799 3.59999V5.03999C32.8799 5.63999 33.4799 5.99999 33.7199 5.99999H39.2399C39.4799 5.99999 39.7199 6.11999 39.8399 6.23999L40.5599 7.55999H47.8799C48.8399 7.55999 49.6799 8.39999 49.6799 9.47999V55.8C49.6799 56.76 48.8399 57.6 47.8799 57.6H12.1199C11.1599 57.6 10.3199 56.76 10.3199 55.8V9.47999C10.3199 8.39999 11.1599 7.55999 12.1199 7.55999ZM24.3599 41.4H40.0799V42.84H24.3599V41.4ZM24.3599 30.96H38.3999V32.4H24.3599V30.96ZM24.3599 20.52H42.7199V21.96H24.3599V20.52ZM24.3599 45H36.3599V46.44H24.3599V45ZM24.3599 34.56H42.5999V36.12H24.3599V34.56ZM24.3599 24.24H39.7199V25.68H24.3599V24.24ZM17.1599 41.28H22.4399V46.44H17.1599V41.28ZM17.1599 30.96H22.4399V36.12H17.1599V30.96ZM17.1599 20.52H22.4399V25.68H17.1599V20.52Z" fill="#90A4AE"/>
</g>
</g>
</svg>
