<svg width="60" height="60" viewBox="0 0 60 60" fill="none" xmlns="http://www.w3.org/2000/svg">
<g id="Frame 23">
<g id="Unlimited Knowledge">
<rect id="Rectangle 1" x="6.60046" y="10.7168" width="47.1077" height="34.7516" rx="5" fill="#90A4AE"/>
<path id="Rectangle 2" d="M6.60046 40.0625H53.7082V40.4683C53.7082 43.2298 51.4696 45.4683 48.7082 45.4683H11.6005C8.83904 45.4683 6.60046 43.2298 6.60046 40.4683V40.0625Z" fill="#B0BEC5"/>
<path id="Vector 1" d="M35.7531 45.2753H24.1693C24.3623 48.3643 23.9762 49.1366 23.9762 49.3297C23.9762 49.4841 23.3326 49.6514 23.0109 49.7158H21.6594V51.2603H38.456V49.7158H37.1046L36.1393 49.3297C35.5214 48.5574 35.6244 46.305 35.7531 45.2753Z" fill="#90A4AE"/>
<g id="Mask Group">
<mask id="mask0_112_389" style="mask-type:alpha" maskUnits="userSpaceOnUse" x="21" y="45" width="18" height="7">
<path id="Vector 2" d="M35.7531 45.2753H24.1693C24.3623 48.3643 23.9762 49.1366 23.9762 49.3297C23.9762 49.4841 23.3326 49.6514 23.0109 49.7158H21.6594V51.2603H38.456V49.7158H37.1046L36.1393 49.3297C35.5214 48.5574 35.6244 46.305 35.7531 45.2753Z" fill="white"/>
</mask>
<g mask="url(#mask0_112_389)">
<rect id="Rectangle 3" x="29.7681" y="41.9932" width="10.4255" height="11.97" fill="#607D8B"/>
</g>
</g>
<path id="Vector 3" d="M32.6643 8.4H47.7233V34.6568C43.0898 34.5924 33.4365 34.5023 31.892 34.6568C30.3475 34.8112 29.8327 36.0082 29.7683 36.5874V10.5237C30.695 8.82474 32.0851 8.4 32.6643 8.4Z" fill="#F6F7F8"/>
<path id="Vector 4" d="M26.8412 8.4H11.6203V34.6568C16.3036 34.5924 26.0606 34.5023 27.6218 34.6568C29.1829 34.8112 29.7033 36.0082 29.7683 36.5874V10.5237C28.8316 8.82474 27.4266 8.4 26.8412 8.4Z" fill="#ECEFF1"/>
<path id="Vector" d="M38.4012 13.7269C34.1861 13.7269 31.3966 17.148 28.9356 20.1669C26.833 22.746 24.8475 25.1813 22.4293 25.1813C19.9157 25.1813 18.3724 22.6168 18.3724 20.7783C18.3724 19.0738 20.0654 16.5967 22.7188 16.5967C25.2935 16.5967 26.6348 18.6422 26.7025 18.7471C27.1196 19.4172 28.0053 19.628 28.6836 19.2173C29.3654 18.805 29.5814 17.9221 29.1658 17.2453C29.0776 17.102 26.9572 13.7271 22.7188 13.7271C18.4539 13.7271 15.4814 17.4436 15.4814 20.7785C15.4814 24.2185 18.3348 28.0512 22.4291 28.0512C26.2262 28.0512 28.7461 24.961 31.1826 21.9722C33.4365 19.2083 35.5656 16.5968 38.4012 16.5968C40.0882 16.5968 41.1968 17.165 41.7893 18.3324C42.3028 19.3455 42.3024 20.4919 42.302 20.8891C42.302 21.1168 42.1807 22.2591 41.6194 23.2876C40.9794 24.4594 40.0708 25.0048 38.7577 25.0048C36.1136 25.0048 34.6851 23.2986 34.1471 22.656C34.0073 22.4888 33.9066 22.3684 33.7721 22.2542C33.1665 21.7392 32.2536 21.8083 31.7338 22.4102C31.2326 22.9908 31.2809 23.8539 31.8283 24.3763C31.8544 24.4058 31.8859 24.4444 31.9233 24.4894C32.6244 25.3269 34.7563 27.8742 38.7572 27.8742C43.6198 27.8742 45.1923 23.1675 45.1923 20.8694C45.1927 19.4058 44.9166 18.1182 44.3707 17.0417C43.6043 15.53 41.9462 13.7269 38.4012 13.7269Z" fill="#90A4AE"/>
</g>
</g>
</svg>
