<svg width="54" height="54" viewBox="0 0 54 54" fill="none" xmlns="http://www.w3.org/2000/svg">
<g id="iconfinder-medal-4341306_120529 2" clip-path="url(#clip0_112_337)">
<g id="Group">
<g id="Group_2">
<path id="Vector" d="M27 53.3672C12.4378 53.3672 0.632812 41.5622 0.632812 27C0.632812 12.4378 12.4378 0.632812 27 0.632812C41.5622 0.632812 53.3672 12.4378 53.3672 27C53.3672 41.5622 41.5622 53.3672 27 53.3672Z" fill="#76C3D7"/>
</g>
<path id="Vector_2" d="M0.643341 27.6223C0.674982 27.5695 0.717167 27.5168 0.769901 27.4641C5.82186 22.4121 10.8844 17.3602 15.9258 12.3082C16.1578 12.0762 16.4004 11.9707 16.7273 11.9707C23.509 11.9812 30.2906 11.9812 37.0723 11.9707C37.3992 11.9707 37.6523 12.0762 37.8738 12.3082C39.382 13.827 40.8902 15.3246 42.3984 16.8434C42.4617 16.9066 42.525 16.9594 42.5672 17.0227C42.7465 17.2547 42.7676 17.4973 42.641 17.7609C42.6094 17.8242 42.5672 17.8875 42.525 17.9508C39.7828 22.1273 37.0406 26.2934 34.309 30.4699C33.7394 31.3348 33.1805 32.1891 32.6109 33.0645C32.6109 33.0645 32.6742 33.2227 32.7058 33.2859C33.0855 34.1613 33.2543 35.0894 33.2226 36.0492C33.1594 37.6945 32.5476 39.0973 31.3875 40.2574C27.4219 44.2336 23.4457 48.2098 19.4695 52.1754C19.4379 52.207 19.4168 52.2281 19.3851 52.2492C8.73279 49.0535 0.907013 39.266 0.643341 27.6223Z" fill="#63A4B4"/>
</g>
<g id="giftbox-giftbox_1_">
<rect id="Rectangle 641" x="12" y="12" width="4" height="4" fill="#63A4B4"/>
<rect id="Rectangle 642" x="38" y="12" width="4" height="4" fill="#63A4B4"/>
<rect id="Rectangle 643" x="31" y="20" width="10" height="18" fill="#63A4B4"/>
<g id="Group_3">
<g id="Group_4">
<path id="Vector_3" d="M24.6572 38.3965H23.4503V12.3104H24.6572V38.3965Z" fill="#EBC25F"/>
</g>
<g id="Group_5">
<path id="Vector_4" d="M30.5855 38.3965H29.3787V12.3104H30.5855V38.3965Z" fill="#EBC25F"/>
</g>
<g id="Group_6">
<path id="Vector_5" d="M41.3079 39H12.8021C12.4688 39 12.1986 38.7301 12.1986 38.3965V18.2388H13.4055V37.7931H40.7044V18.2388H41.9114V38.3965C41.9114 38.7301 41.6414 39 41.3079 39Z" fill="#EBC25F"/>
</g>
<g id="Group_7">
<path id="Vector_6" d="M42.4323 18.8422H11.6035C11.2702 18.8422 11 18.5723 11 18.2388V12.3104C11 11.9769 11.2702 11.7069 11.6035 11.7069H42.4323C42.7658 11.7069 43.0357 11.9769 43.0357 12.3104V18.2388C43.0357 18.5723 42.7658 18.8422 42.4323 18.8422ZM12.2069 17.6353H41.8289V12.9138H12.2069V17.6353Z" fill="#EBC25F"/>
</g>
<g id="Group_8">
<g id="Group_9">
<path id="Vector_7" d="M27.018 12.321C26.9983 12.321 26.9782 12.3198 26.9582 12.3181C26.7623 12.2986 22.14 11.8195 20.3312 10.0121C18.9587 8.63902 18.9587 6.40436 20.3308 5.03129C20.9968 4.36598 21.8813 4 22.8219 4C23.7624 4 24.647 4.36598 25.312 5.03129C27.1208 6.8387 27.5991 11.4618 27.6185 11.658C27.6365 11.8377 27.5725 12.0163 27.4447 12.1442C27.3309 12.2579 27.1771 12.321 27.018 12.321ZM22.8219 5.20691C22.2034 5.20691 21.622 5.44735 21.1845 5.88461C20.2822 6.78741 20.2822 8.25597 21.1848 9.15881C22.2278 10.2013 24.794 10.7841 26.3188 11.0186C26.0846 9.49351 25.502 6.92709 24.4587 5.88461C24.0214 5.44735 23.44 5.20691 22.8219 5.20691Z" fill="#FFAF7D"/>
</g>
<g id="Group_10">
<path id="Vector_8" d="M27.0179 12.321C26.8588 12.321 26.705 12.2579 26.5913 12.1442C26.4634 12.0163 26.3994 11.8377 26.4174 11.658C26.4369 11.4618 26.9157 6.8387 28.724 5.03129C29.389 4.36598 30.2735 4 31.214 4C32.1546 4 33.0391 4.36598 33.7048 5.03129C35.0773 6.40436 35.0773 8.63902 33.7051 10.0121C31.8959 11.8195 27.2737 12.2986 27.0777 12.3181C27.0577 12.3198 27.0377 12.321 27.0179 12.321ZM31.214 5.20691C30.5959 5.20691 30.0145 5.44735 29.5773 5.88461C28.5345 6.92709 27.9514 9.49351 27.7171 11.0186C29.242 10.7841 31.8081 10.2013 32.8514 9.15881C33.7537 8.25597 33.7537 6.78741 32.8511 5.88461C32.4139 5.44735 31.8325 5.20691 31.214 5.20691Z" fill="#FFAF7D"/>
</g>
</g>
<g id="Group_11">
<path id="Vector_9" d="M27.6214 37.2108H26.4146V36.3056H27.6214V37.2108ZM27.6214 35.0988H26.4146V33.8919H27.6214V35.0988ZM27.6214 32.685H26.4146V31.4781H27.6214V32.685ZM27.6214 30.2712H26.4146V29.0643H27.6214V30.2712ZM27.6214 27.8574H26.4146V26.6505H27.6214V27.8574ZM27.6214 25.4436H26.4146V24.2367H27.6214V25.4436ZM27.6214 23.0299H26.4146V21.823H27.6214V23.0299ZM27.6214 20.6161H26.4146V19.4091H27.6214V20.6161Z" fill="#EBC25F"/>
</g>
</g>
</g>
</g>
<defs>
<clipPath id="clip0_112_337">
<rect width="54" height="54" fill="white" transform="matrix(-1 0 0 1 54 0)"/>
</clipPath>
</defs>
</svg>
