<svg width="60" height="60" viewBox="0 0 60 60" fill="none" xmlns="http://www.w3.org/2000/svg">
<g id="Frame 19">
<g id="Worldwide Post">
<g id="Mask Group">
<mask id="mask0_112_366" style="mask-type:alpha" maskUnits="userSpaceOnUse" x="7" y="10" width="39" height="38">
<ellipse id="Ellipse 1" cx="26.6778" cy="28.9252" rx="18.7252" ry="18.7252" fill="white"/>
</mask>
<g mask="url(#mask0_112_366)">
<ellipse id="Ellipse 2" cx="26.6778" cy="28.9252" rx="18.7252" ry="18.7252" fill="#607D8B"/>
<path id="Vector 1" d="M10.0826 22.8828C9.54828 22.3194 9.68658 21.5543 9.82252 21.2421C10.2874 19.6632 11.6204 17.7537 12.2288 16.9963C12.1558 18.123 12.3045 20.5311 13.4833 21.1495C14.9568 21.9225 14.5079 17.8379 14.9975 20.5502C15.4871 23.2625 19.3162 23.1033 18.4187 21.3274C17.5213 19.5514 20.4528 17.6163 19.8054 19.4224C19.158 21.2285 20.6009 21.4324 21.075 20.6636C21.5492 19.8947 23.9201 22.4437 23.8232 21.7071C23.7263 20.9705 24.0884 22.3771 24.3636 21.1057C24.6389 19.8344 24.2667 20.3691 29.6763 19.7781C35.0858 19.1871 28.7021 13.3829 34.9633 16.9108C41.2246 20.4387 36.621 27.4915 36.9831 28.8982C37.3451 30.3048 36.3151 28.1938 37.1106 30.2038C37.9061 32.2139 37.544 30.8073 36.1267 32.1431C34.7094 33.479 39.354 31.4471 37.7227 35.1925C36.0914 38.9379 39.1656 35.3964 32.716 35.8178C26.2663 36.2393 31.13 30.8271 30.9261 31.2953C30.7222 31.7634 32.2058 30.5951 29.6158 31.4264C27.0257 32.2577 29.5239 29.7191 27.1378 30.0822C24.7517 30.4453 25.9651 29.5776 23.3851 28.4676C20.8052 27.3575 19.4592 27.8902 20.2954 28.5279C20.9644 29.0381 20.5028 29.5437 20.1884 29.7327C13.5604 32.1621 16.0431 26.1423 14.4369 25.0343C12.8308 23.9263 11.0921 22.4833 11.6888 23.9909C12.2854 25.4984 12.3261 24.1261 12.1528 25.1634C11.9795 26.2006 13.6519 27.4761 12.0101 26.7697C10.3684 26.0633 11.0107 25.2279 10.3428 24.5235C9.67481 23.8192 10.7506 23.5872 10.0826 22.8828Z" fill="#90A4AE"/>
<path id="Vector 2" d="M21.0214 38.678C20.2412 38.3659 20.6963 37.3777 21.0214 36.9225C21.2814 36.6625 21.9966 36.4154 22.7769 37.5077C23.7521 38.8731 24.1422 36.9225 23.9472 38.678C23.7521 40.4335 27.2631 40.0434 25.3126 40.8236C23.362 41.6038 21.9966 39.0681 21.0214 38.678Z" fill="#90A4AE"/>
<path id="Vector 3" d="M21.689 16.3511C20.1273 14.9166 21.0382 13.6283 21.689 13.1634C22.4481 12.5657 24.7473 11.3703 27.8707 11.3703C30.9941 11.3703 34.5947 13.2298 36.0045 14.1595C39.1279 16.2315 40.451 18.8747 40.7222 19.9372C39.4208 20.1365 39.5834 18.3434 38.77 18.3434C37.9567 18.3434 38.77 16.3511 36.3299 16.1519C33.8897 15.9526 34.0524 13.1634 31.7749 13.7611C29.4975 14.3588 30.6362 16.3511 28.3587 16.3511C26.0812 16.3511 29.1721 15.1557 26.5693 15.1557C23.9664 15.1557 23.6411 18.1442 21.689 16.3511Z" fill="#90A4AE"/>
<path id="Vector 4" d="M8.94164 34.5594C9.26763 34.1701 10.3489 33.3143 12.0661 33.0062C14.2126 32.6211 12.0575 36.7123 14.2036 36.5222C14.7219 36.4763 14.9672 36.407 15.074 36.3531C15.0765 36.2241 15.2376 36.2705 15.074 36.3531C15.0714 36.4886 15.2438 36.8177 16.1518 37.502C18.4884 39.2629 15.373 36.915 16.9262 40.0395C18.4794 43.1639 20.243 39.657 22.9651 43.3694C25.1429 46.3393 27.3769 47.4758 28.2216 47.6728C22.9546 47.9206 11.7247 45.645 8.94164 34.5594Z" fill="#90A4AE"/>
</g>
</g>
<g id="Other color">
<mask id="mask1_112_366" style="mask-type:alpha" maskUnits="userSpaceOnUse" x="7" y="10" width="39" height="38">
<ellipse id="Ellipse 1_2" cx="26.6778" cy="28.9252" rx="18.7252" ry="18.7252" fill="white"/>
</mask>
<g mask="url(#mask1_112_366)">
<g id="Mask Group_2">
<mask id="mask2_112_366" style="mask-type:alpha" maskUnits="userSpaceOnUse" x="7" y="10" width="39" height="38">
<circle id="Ellipse 2_2" cx="26.6782" cy="28.9253" r="18.7252" transform="rotate(-30 26.6782 28.9253)" fill="#1F4EE5"/>
</mask>
<g mask="url(#mask2_112_366)">
<rect id="Rectangle 91" x="27.6162" y="3.61372" width="19.5054" height="47.5932" fill="#90A4AE"/>
</g>
</g>
<g id="Mask Group_3">
<mask id="mask3_112_366" style="mask-type:alpha" maskUnits="userSpaceOnUse" x="9" y="11" width="32" height="37">
<g id="Vector">
<path d="M10.265 22.8828C9.73063 22.3193 9.86893 21.5542 10.0049 21.2421C10.4698 19.6632 11.8028 17.7537 12.4111 16.9963C12.3381 18.123 12.4868 20.5311 13.6656 21.1495C15.1392 21.9225 14.6903 17.8379 15.1799 20.5502C15.6695 23.2625 19.4985 23.1033 18.6011 21.3274C17.7036 19.5514 20.6352 17.6163 19.9878 19.4224C19.3404 21.2285 20.7833 21.4324 21.2574 20.6636C21.7315 19.8947 24.1025 22.4436 24.0056 21.7071C23.9087 20.9705 24.2707 22.3771 24.546 21.1057C24.8212 19.8343 24.4491 20.3691 29.8586 19.7781C35.2682 19.1871 28.8844 13.3828 35.1457 16.9107C41.4069 20.4387 36.8033 27.4915 37.1654 28.8981C37.5275 30.3047 36.4975 28.1938 37.2929 30.2038C38.0884 32.2138 37.7264 30.8072 36.309 32.1431C34.8917 33.479 39.5364 31.4471 37.9051 35.1925C36.2737 38.9379 39.348 35.3964 32.8983 35.8178C26.4486 36.2392 31.3124 30.8271 31.1084 31.2952C30.9045 31.7634 32.3881 30.595 29.7981 31.4263C27.2081 32.2576 29.7062 29.7191 27.3201 30.0822C24.934 30.4453 26.1474 29.5776 23.5675 28.4675C20.9875 27.3574 19.6416 27.8901 20.4778 28.5279C21.1467 29.0381 20.6852 29.5437 20.3708 29.7327C13.7428 32.162 16.2254 26.1423 14.6193 25.0343C13.0132 23.9263 11.2745 22.4833 11.8711 23.9908C12.4677 25.4983 12.5084 24.1261 12.3351 25.1633C12.1619 26.2006 13.8343 27.4761 12.1925 26.7697C10.5507 26.0633 11.1931 25.2279 10.5251 24.5235C9.85716 23.8192 10.933 23.5872 10.265 22.8828Z" fill="white"/>
<path d="M21.2038 38.6779C20.4236 38.3658 20.8787 37.3775 21.2038 36.9224C21.4639 36.6623 22.1791 36.4153 22.9593 37.5076C23.9345 38.8729 24.3246 36.9224 24.1296 38.6779C23.9345 40.4334 27.4455 40.0433 25.495 40.8235C23.5444 41.6037 22.179 39.068 21.2038 38.6779Z" fill="white"/>
<path d="M21.8711 16.3511C20.3094 14.9166 21.2204 13.6283 21.8711 13.1634C22.6303 12.5657 24.9294 11.3703 28.0528 11.3703C31.1762 11.3703 34.7768 13.2298 36.1867 14.1595C39.3101 16.2315 40.6332 18.8747 40.9043 19.9372C39.6029 20.1365 39.7656 18.3434 38.9522 18.3434C38.1388 18.3434 38.9522 16.3511 36.512 16.1519C34.0719 15.9526 34.2346 13.1634 31.9571 13.7611C29.6796 14.3588 30.8183 16.3511 28.5409 16.3511C26.2634 16.3511 29.3542 15.1557 26.7514 15.1557C24.1486 15.1557 23.8232 18.1442 21.8711 16.3511Z" fill="white"/>
<path d="M9.12378 34.5594C9.44977 34.17 10.5311 33.3143 12.2483 33.0062C14.3947 32.621 12.2397 36.7122 14.3857 36.5221C14.9041 36.4762 15.1493 36.4069 15.2562 36.353C15.2587 36.224 15.4198 36.2705 15.2562 36.353C15.2536 36.4885 15.426 36.8176 16.334 37.5019C18.6706 39.2628 15.5551 36.9149 17.1083 40.0394C18.6615 43.1639 20.4251 39.657 23.1473 43.3693C25.325 46.3392 27.559 47.4757 28.4038 47.6727C23.1367 47.9206 11.9069 45.6449 9.12378 34.5594Z" fill="white"/>
</g>
</mask>
<g mask="url(#mask3_112_366)">
<rect id="Rectangle 91_2" x="27.7739" y="5.45542" width="19.5054" height="47.5932" fill="#B0BEC5"/>
</g>
</g>
</g>
</g>
<g id="Magnifier">
<path id="Vector_2" d="M42.6661 44.4143C46.5408 44.4143 49.6819 41.2963 49.6819 37.45C49.6819 33.6037 46.5408 30.4857 42.6661 30.4857C38.7915 30.4857 35.6504 33.6037 35.6504 37.45C35.6504 41.2963 38.7915 44.4143 42.6661 44.4143Z" stroke="#ECEFF1" stroke-width="3" stroke-miterlimit="10"/>
<path id="Vector_3" d="M47.0721 42.6217L45.4407 43.8938L50.2459 49.9664L51.8773 48.6943L47.0721 42.6217Z" fill="#ECEFF1"/>
</g>
</g>
</g>
</svg>
