<svg width="54" height="54" viewBox="0 0 54 54" fill="none" xmlns="http://www.w3.org/2000/svg">
<g id="iconfinder-medal-4341306_120529 1" clip-path="url(#clip0_112_331)">
<g id="Group">
<g id="Group_2">
<path id="Vector" d="M27 53.3672C12.4378 53.3672 0.632812 41.5622 0.632812 27C0.632812 12.4378 12.4378 0.632812 27 0.632812C41.5622 0.632812 53.3672 12.4378 53.3672 27C53.3672 41.5622 41.5622 53.3672 27 53.3672Z" fill="#76C3D7"/>
</g>
<path id="Vector_2" d="M0.643341 27.6223C0.674982 27.5695 0.717168 27.5168 0.769902 27.4641C5.82186 22.4121 10.8844 17.3602 15.9258 12.3082C16.1578 12.0762 16.4004 11.9707 16.7273 11.9707C23.509 11.9812 30.2906 11.9812 37.0723 11.9707C37.3992 11.9707 37.6523 12.0762 37.8738 12.3082C39.382 13.827 40.8902 15.3246 42.3984 16.8434C42.4617 16.9066 42.525 16.9594 42.5672 17.0227C42.7465 17.2547 42.7676 17.4973 42.641 17.7609C42.6094 17.8242 42.5672 17.8875 42.525 17.9508C39.7828 22.1273 37.0406 26.2934 34.309 30.4699C33.7394 31.3348 33.1805 32.1891 32.6109 33.0645C32.6426 33.1488 32.6742 33.2227 32.7058 33.2859C33.0855 34.1613 33.2543 35.0895 33.2226 36.0492C33.1594 37.6945 32.5476 39.0973 31.3875 40.2574C27.4219 44.2336 23.4457 48.2098 19.4695 52.1754C19.4379 52.207 19.4168 52.2281 19.3851 52.2492C8.73279 49.0535 0.907013 39.266 0.643341 27.6223Z" fill="#63A4B4"/>
<path id="Vector_3" d="M11.3801 16.9172L16.1684 12.1289C16.295 12.0024 16.4637 11.9285 16.643 11.9285H37.3571C37.5364 11.9285 37.7051 12.0024 37.8317 12.1289L42.62 16.9172C42.8414 17.1387 42.8836 17.4973 42.7043 17.7715L32.6953 33.0117C33.0961 33.8449 33.3176 34.7731 33.3176 35.7539C33.3176 39.2344 30.4805 42.0715 27 42.0715C23.5196 42.0715 20.6825 39.2344 20.6825 35.7539C20.6825 34.7731 20.9039 33.8449 21.3047 33.0117L11.2957 17.7609C11.1164 17.4973 11.1481 17.1387 11.3801 16.9172ZM37.0723 13.2785H16.9172L13.4789 16.7168H18.2672H18.2778H35.7118H35.7223H40.5106L37.0723 13.2785ZM27 29.4258C27 29.4258 27.0106 29.4258 27 29.4258L34.4672 18.0668H19.5223L26.9895 29.4258H27ZM40.8903 18.0668H36.0914L28.5082 29.6051C29.8582 29.9426 31.0395 30.702 31.9043 31.7566L40.8903 18.0668ZM27 40.7215C29.7422 40.7215 31.9676 38.4961 31.9676 35.7539C31.9676 33.0117 29.7422 30.7863 27 30.7863C24.2579 30.7863 22.0325 33.0117 22.0325 35.7539C22.0325 38.4855 24.2579 40.7215 27 40.7215ZM25.4918 29.6156L17.9086 18.0774H13.1098L22.1063 31.7672C22.95 30.7125 24.1418 29.9426 25.4918 29.6156Z" fill="#EBC25F"/>
</g>
</g>
<defs>
<clipPath id="clip0_112_331">
<rect width="54" height="54" fill="white" transform="matrix(-1 0 0 1 54 0)"/>
</clipPath>
</defs>
</svg>
