<svg width="56" height="56" viewBox="0 0 56 56" fill="none" xmlns="http://www.w3.org/2000/svg">
<g id="Sosmed">
<circle id="Ellipse 8" cx="28" cy="28" r="28" fill="url(#paint0_linear_328_1169)"/>
<path id="instagram" d="M22.5469 15C18.3906 15 15 18.3906 15 22.5469V33.4531C15 37.6094 18.3906 41 22.5469 41H33.4531C37.6094 41 41 37.6094 41 33.4531V22.5469C41 18.3906 37.6094 15 33.4531 15H22.5469ZM22.5469 17H33.4531C36.5273 17 39 19.4688 39 22.5469V33.4531C39 36.5273 36.5312 39 33.4531 39H22.5469C19.4727 39 17 36.5312 17 33.4531V22.5469C17 19.4727 19.4688 17 22.5469 17ZM35.5 19C34.6719 19 34 19.6719 34 20.5C34 21.3281 34.6719 22 35.5 22C36.3281 22 37 21.3281 37 20.5C37 19.6719 36.3281 19 35.5 19ZM28 21C24.1445 21 21 24.1445 21 28C21 31.8555 24.1445 35 28 35C31.8555 35 35 31.8555 35 28C35 24.1445 31.8555 21 28 21ZM28 23C30.7734 23 33 25.2266 33 28C33 30.7734 30.7734 33 28 33C25.2266 33 23 30.7734 23 28C23 25.2266 25.2266 23 28 23Z" fill="white"/>
</g>
<defs>
<linearGradient id="paint0_linear_328_1169" x1="56" y1="28.0681" x2="-1.30175" y2="28.0681" gradientUnits="userSpaceOnUse">
<stop stop-color="#FFE599"/>
<stop offset="1" stop-color="#F4A93F"/>
</linearGradient>
</defs>
</svg>
