<svg width="56" height="56" viewBox="0 0 56 56" fill="none" xmlns="http://www.w3.org/2000/svg">
<g id="Sosmed">
<circle id="Ellipse 8" cx="28" cy="28" r="28" fill="url(#paint0_linear_328_1160)"/>
<path id="ytb" d="M46 28.3923C46 28.3076 46 28.2114 45.9961 28.0999C45.9922 27.7882 45.9844 27.4381 45.9766 27.0649C45.9453 25.9915 45.8906 24.922 45.8047 23.914C45.6875 22.5251 45.5156 21.367 45.2812 20.4975C45.0339 19.5901 44.5491 18.7626 43.8753 18.0976C43.2014 17.4325 42.3622 16.9534 41.4414 16.7079C40.3359 16.4155 38.1719 16.2347 35.125 16.1231C33.6758 16.0693 32.125 16.0346 30.5742 16.0154C30.0312 16.0077 29.5273 16.0038 29.0742 16H27.9258C27.4727 16.0038 26.9687 16.0077 26.4258 16.0154C24.875 16.0346 23.3242 16.0693 21.875 16.1231C18.8281 16.2385 16.6602 16.4194 15.5586 16.7079C14.6375 16.9528 13.7979 17.4317 13.124 18.0968C12.4501 18.762 11.9655 19.5898 11.7188 20.4975C11.4805 21.367 11.3125 22.5251 11.1953 23.914C11.1094 24.922 11.0547 25.9915 11.0234 27.0649C11.0117 27.4381 11.0078 27.7882 11.0039 28.0999C11.0039 28.2114 11 28.3076 11 28.3923V28.6077C11 28.6924 11 28.7886 11.0039 28.9001C11.0078 29.2118 11.0156 29.5619 11.0234 29.9351C11.0547 31.0085 11.1094 32.078 11.1953 33.086C11.3125 34.4749 11.4844 35.633 11.7188 36.5025C12.2188 38.3453 13.6875 39.7996 15.5586 40.2921C16.6602 40.5845 18.8281 40.7653 21.875 40.8769C23.3242 40.9307 24.875 40.9654 26.4258 40.9846C26.9687 40.9923 27.4727 40.9962 27.9258 41H29.0742C29.5273 40.9962 30.0312 40.9923 30.5742 40.9846C32.125 40.9654 33.6758 40.9307 35.125 40.8769C38.1719 40.7615 40.3398 40.5806 41.4414 40.2921C43.3125 39.7996 44.7812 38.3492 45.2812 36.5025C45.5195 35.633 45.6875 34.4749 45.8047 33.086C45.8906 32.078 45.9453 31.0085 45.9766 29.9351C45.9883 29.5619 45.9922 29.2118 45.9961 28.9001C45.9961 28.7886 46 28.6924 46 28.6077V28.3923V28.3923ZM43.1875 28.5923C43.1875 28.6731 43.1875 28.7616 43.1836 28.8655C43.1797 29.1656 43.1719 29.4965 43.1641 29.8543C43.1367 30.8777 43.082 31.901 43 32.8513C42.8945 34.0902 42.7461 35.1059 42.5625 35.7869C42.3203 36.6756 41.6094 37.3797 40.7109 37.6143C39.8906 37.8298 37.8242 38.0029 35.0156 38.1068C33.5937 38.1607 32.0625 38.1953 30.5352 38.2145C30 38.2222 29.5039 38.2261 29.0586 38.2261H27.9414L26.4648 38.2145C24.9375 38.1953 23.4102 38.1607 21.9844 38.1068C19.1758 37.9991 17.1055 37.8298 16.2891 37.6143C15.3906 37.3758 14.6797 36.6756 14.4375 35.7869C14.2539 35.1059 14.1055 34.0902 14 32.8513C13.918 31.901 13.8672 30.8777 13.8359 29.8543C13.8242 29.4965 13.8203 29.1617 13.8164 28.8655C13.8164 28.7616 13.8125 28.6693 13.8125 28.5923V28.4077C13.8125 28.3269 13.8125 28.2384 13.8164 28.1345C13.8203 27.8344 13.8281 27.5035 13.8359 27.1457C13.8633 26.1223 13.918 25.099 14 24.1487C14.1055 22.9098 14.2539 21.8941 14.4375 21.2131C14.6797 20.3244 15.3906 19.6203 16.2891 19.3857C17.1094 19.1702 19.1758 18.9971 21.9844 18.8932C23.4063 18.8393 24.9375 18.8047 26.4648 18.7855C27 18.7778 27.4961 18.7739 27.9414 18.7739H29.0586L30.5352 18.7855C32.0625 18.8047 33.5898 18.8393 35.0156 18.8932C37.8242 19.0009 39.8945 19.1702 40.7109 19.3857C41.6094 19.6242 42.3203 20.3244 42.5625 21.2131C42.7461 21.8941 42.8945 22.9098 43 24.1487C43.082 25.099 43.1328 26.1223 43.1641 27.1457C43.1758 27.5035 43.1797 27.8383 43.1836 28.1345C43.1836 28.2384 43.1875 28.3307 43.1875 28.4077V28.5923ZM25.0234 33.6554L34.0859 28.4615L25.0234 23.3446V33.6554Z" fill="white"/>
</g>
<defs>
<linearGradient id="paint0_linear_328_1160" x1="56" y1="28.0681" x2="-1.30175" y2="28.0681" gradientUnits="userSpaceOnUse">
<stop stop-color="#FFE599"/>
<stop offset="1" stop-color="#F4A93F"/>
</linearGradient>
</defs>
</svg>
